# xmcd
#
# Track frame offsets: 
#        183
#        26620
#        42795
#        54195
#        75858
#        103820
#        120570
#        150895
#        177033
#        190808
#        211970
#        225483
#        244770
#        267145
#        282695
#
# Disc length: 4040 seconds
#
# Revision: 12
# Processed by: cddbd v1.5.2PL0 Copyright (c) Steve Scherf et al.
# Submitted via: ExactAudioCopy v1.0b2
#
DISCID=b50fc60f
DTITLE=Stan Getz - The Girl From Ipanema - The Bossa Nova Years, CD1
DYEAR=1989
DGENRE=Bossa Nova
TTITLE0=Desafinado
TTITLE1=Samba Dees Days
TTITLE2=O Pato (The Duck)
TTITLE3=Samba Triste
TTITLE4=Samba de Uma Nota So (One Note Samba)
TTITLE5=Luxo So
TTITLE6=Baia
TTITLE7=Manh de Carnaval (Morning of the Carnival)
TTITLE8=Balanco no Samba (Street Dance)
TTITLE9=Melancolico (Melancholy)
TTITLE10=Entre Amigos (Sympathy Between Friends)
TTITLE11=Chega de Saudade (No More Blues)
TTITLE12=Noite Triste (Night Sadness)
TTITLE13=Samba de Uma Nota So (One Note Samba)
TTITLE14=Bim Bom
EXTD=YEAR: 1989
EXTT0=
EXTT1=
EXTT2=
EXTT3=
EXTT4=
EXTT5=
EXTT6=
EXTT7=
EXTT8=
EXTT9=
EXTT10=
EXTT11=
EXTT12=
EXTT13=
EXTT14=
PLAYORDER=
